<svg xmlns="http://www.w3.org/2000/svg" xmlns:xlink="http://www.w3.org/1999/xlink" width="500" zoomAndPan="magnify" viewBox="0 0 375 374.999991" height="500" preserveAspectRatio="xMidYMid meet" version="1.0"><defs><clipPath id="f8bc542882"><path d="M 0 23.164062 L 375 23.164062 L 375 351.664062 L 0 351.664062 Z M 0 23.164062 " clip-rule="nonzero"/></clipPath><clipPath id="6e3160b347"><path d="M 112.5 112.5 L 262.5 112.5 L 262.5 262.5 L 112.5 262.5 Z M 112.5 112.5 " clip-rule="nonzero"/></clipPath></defs><g clip-path="url(#f8bc542882)"><path fill="#000000" d="M 280.683594 23.164062 L 94.316406 23.164062 L 0.00390625 187.414062 L 94.316406 351.664062 L 280.683594 351.664062 L 374.996094 187.414062 L 280.683594 23.164062 M 275.550781 342.765625 L 99.449219 342.765625 L 10.265625 187.414062 L 99.449219 32.0625 L 275.550781 32.0625 L 364.734375 187.414062 L 275.550781 342.765625 " fill-opacity="1" fill-rule="nonzero"/></g><g clip-path="url(#6e3160b347)"><path fill="#000000" d="M 167.085938 151.210938 L 168.144531 151.210938 C 170.8125 151.210938 172.984375 149.039062 172.984375 146.371094 L 172.984375 141.53125 C 172.984375 138.863281 170.8125 136.695312 168.144531 136.695312 L 241.023438 136.695312 L 258.320312 132.371094 C 260.78125 131.753906 262.5 129.554688 262.5 127.015625 C 262.5 124.480469 260.78125 122.277344 258.320312 121.664062 L 241.023438 117.339844 L 164.4375 117.339844 C 161.777344 114.371094 157.917969 112.5 153.628906 112.5 C 145.625 112.5 139.113281 119.011719 139.113281 127.015625 C 139.113281 130.730469 140.515625 134.125 142.820312 136.695312 L 139.113281 136.695312 C 136.445312 136.695312 134.273438 138.863281 134.273438 141.53125 L 134.273438 146.371094 C 134.273438 147.804688 134.90625 149.09375 135.898438 149.980469 L 128.632812 165.726562 L 112.5 165.726562 L 112.5 262.5 L 262.5 262.5 L 262.5 165.726562 L 173.789062 165.726562 Z M 175.085938 180.089844 C 175.292969 180.535156 175.402344 181.035156 175.402344 181.527344 L 175.402344 181.648438 C 175.402344 183.542969 173.863281 185.082031 171.972656 185.082031 C 170.609375 185.082031 169.375 184.273438 168.828125 183.023438 L 154.910156 151.210938 L 161.757812 151.210938 Z M 130.449219 185.082031 C 128.554688 185.082031 127.015625 183.542969 127.015625 181.648438 L 127.015625 181.527344 C 127.015625 181.035156 127.125 180.535156 127.332031 180.089844 L 140.660156 151.210938 L 147.511719 151.210938 L 133.589844 183.023438 C 133.046875 184.273438 131.8125 185.082031 130.449219 185.082031 Z M 151.210938 154.828125 L 155.976562 165.726562 L 146.441406 165.726562 Z M 257.660156 127.015625 C 257.660156 127.328125 257.449219 127.597656 257.148438 127.675781 L 243.144531 131.175781 L 243.144531 122.855469 L 257.148438 126.355469 C 257.449219 126.433594 257.660156 126.703125 257.660156 127.015625 Z M 238.304688 122.175781 L 238.304688 131.855469 L 167.3125 131.855469 C 167.851562 130.339844 168.144531 128.710938 168.144531 127.015625 C 168.144531 125.320312 167.851562 123.691406 167.3125 122.175781 Z M 143.953125 127.015625 C 143.953125 121.679688 148.292969 117.339844 153.628906 117.339844 C 158.964844 117.339844 163.304688 121.679688 163.304688 127.015625 C 163.304688 132.351562 158.964844 136.695312 153.628906 136.695312 C 148.292969 136.695312 143.953125 132.351562 143.953125 127.015625 Z M 139.113281 141.53125 L 168.144531 141.53125 L 168.148438 146.371094 C 168.148438 146.371094 168.148438 146.371094 168.144531 146.371094 L 139.113281 146.371094 Z M 257.660156 170.566406 L 257.660156 257.660156 L 117.339844 257.660156 L 117.339844 170.566406 L 126.398438 170.566406 L 122.9375 178.0625 C 122.441406 179.140625 122.175781 180.339844 122.175781 181.527344 L 122.175781 181.648438 C 122.175781 184.984375 124.164062 187.863281 127.015625 189.171875 L 127.015625 199.597656 L 131.855469 199.597656 L 131.855469 189.792969 C 134.5625 189.328125 136.898438 187.535156 138.023438 184.964844 L 144.324219 170.566406 L 158.09375 170.566406 L 164.394531 184.964844 C 165.519531 187.535156 167.859375 189.328125 170.566406 189.792969 L 170.566406 199.597656 L 175.402344 199.597656 L 175.402344 189.171875 C 178.253906 187.863281 180.242188 184.984375 180.242188 181.648438 L 180.242188 181.527344 C 180.242188 180.339844 179.980469 179.140625 179.480469 178.0625 L 176.019531 170.566406 Z M 257.660156 170.566406 " fill-opacity="1" fill-rule="nonzero"/></g><path fill="#000000" d="M 247.984375 238.304688 L 243.144531 238.304688 C 240.476562 238.304688 238.304688 240.476562 238.304688 243.144531 L 238.304688 247.984375 C 238.304688 250.652344 240.476562 252.824219 243.144531 252.824219 L 247.984375 252.824219 C 250.652344 252.824219 252.824219 250.652344 252.824219 247.984375 L 252.824219 243.144531 C 252.824219 240.476562 250.652344 238.304688 247.984375 238.304688 Z M 247.984375 247.984375 L 243.144531 247.984375 L 243.140625 243.144531 C 243.140625 243.144531 243.144531 243.144531 243.144531 243.144531 L 247.984375 243.144531 Z M 247.984375 247.984375 " fill-opacity="1" fill-rule="nonzero"/><path fill="#000000" d="M 228.628906 238.304688 L 223.789062 238.304688 C 221.121094 238.304688 218.953125 240.476562 218.953125 243.144531 L 218.953125 247.984375 C 218.953125 250.652344 221.121094 252.824219 223.789062 252.824219 L 228.628906 252.824219 C 231.296875 252.824219 233.46875 250.652344 233.46875 247.984375 L 233.46875 243.144531 C 233.46875 240.476562 231.296875 238.304688 228.628906 238.304688 Z M 228.628906 247.984375 L 223.789062 247.984375 L 223.789062 243.144531 L 228.628906 243.144531 Z M 228.628906 247.984375 " fill-opacity="1" fill-rule="nonzero"/><path fill="#000000" d="M 209.273438 238.304688 L 204.433594 238.304688 C 201.765625 238.304688 199.597656 240.476562 199.597656 243.144531 L 199.597656 247.984375 C 199.597656 250.652344 201.765625 252.824219 204.433594 252.824219 L 209.273438 252.824219 C 211.941406 252.824219 214.113281 250.652344 214.113281 247.984375 L 214.113281 243.144531 C 214.113281 240.476562 211.941406 238.304688 209.273438 238.304688 Z M 209.273438 247.984375 L 204.433594 247.984375 L 204.433594 243.144531 L 209.273438 243.144531 Z M 209.273438 247.984375 " fill-opacity="1" fill-rule="nonzero"/><path fill="#000000" d="M 228.628906 228.628906 L 189.917969 228.628906 L 189.917969 223.789062 L 160.886719 223.789062 L 160.886719 233.46875 L 131.855469 233.46875 L 131.855469 209.273438 L 151.210938 209.273438 L 151.210938 180.242188 L 156.046875 180.242188 L 156.046875 175.402344 L 146.371094 175.402344 L 146.371094 204.433594 L 127.015625 204.433594 L 127.015625 238.304688 L 165.726562 238.304688 L 165.726562 228.628906 L 185.082031 228.628906 L 185.082031 233.46875 L 233.46875 233.46875 L 233.46875 228.492188 C 244.339844 227.285156 252.824219 218.042969 252.824219 206.855469 L 252.824219 202.015625 C 252.824219 190.828125 244.339844 181.585938 233.46875 180.378906 L 233.46875 175.402344 L 185.082031 175.402344 L 185.082031 180.242188 L 228.628906 180.242188 Z M 233.46875 223.613281 L 233.46875 206.855469 L 247.984375 206.855469 C 247.984375 215.371094 241.664062 222.4375 233.46875 223.613281 Z M 247.984375 202.015625 L 233.46875 202.015625 L 233.46875 185.257812 C 241.664062 186.433594 247.984375 193.5 247.984375 202.015625 Z M 247.984375 202.015625 " fill-opacity="1" fill-rule="nonzero"/><path fill="#000000" d="M 151.210938 228.628906 L 151.210938 214.113281 L 136.695312 214.113281 L 136.695312 228.628906 Z M 141.53125 218.953125 L 146.371094 218.953125 L 146.371094 223.789062 L 141.53125 223.789062 Z M 141.53125 218.953125 " fill-opacity="1" fill-rule="nonzero"/><path fill="#000000" d="M 122.175781 247.984375 L 127.015625 247.984375 L 127.015625 252.824219 L 122.175781 252.824219 Z M 122.175781 247.984375 " fill-opacity="1" fill-rule="nonzero"/><path fill="#000000" d="M 131.855469 247.984375 L 165.726562 247.984375 L 165.726562 252.824219 L 131.855469 252.824219 Z M 131.855469 247.984375 " fill-opacity="1" fill-rule="nonzero"/><path fill="#000000" d="M 180.242188 247.984375 L 185.082031 247.984375 L 185.082031 252.824219 L 180.242188 252.824219 Z M 180.242188 247.984375 " fill-opacity="1" fill-rule="nonzero"/><path fill="#000000" d="M 170.566406 247.984375 L 175.402344 247.984375 L 175.402344 252.824219 L 170.566406 252.824219 Z M 170.566406 247.984375 " fill-opacity="1" fill-rule="nonzero"/><path fill="#000000" d="M 209.273438 185.082031 L 214.113281 185.082031 L 214.113281 189.917969 L 209.273438 189.917969 Z M 209.273438 185.082031 " fill-opacity="1" fill-rule="nonzero"/><path fill="#000000" d="M 199.597656 185.082031 L 204.433594 185.082031 L 204.433594 189.917969 L 199.597656 189.917969 Z M 199.597656 185.082031 " fill-opacity="1" fill-rule="nonzero"/><path fill="#000000" d="M 218.953125 185.082031 L 223.789062 185.082031 L 223.789062 189.917969 L 218.953125 189.917969 Z M 218.953125 185.082031 " fill-opacity="1" fill-rule="nonzero"/><path fill="#000000" d="M 156.046875 204.433594 L 156.046875 218.953125 L 194.757812 218.953125 L 194.757812 204.433594 L 189.917969 204.433594 L 189.917969 189.917969 L 194.757812 189.917969 L 194.757812 185.082031 L 185.082031 185.082031 L 185.082031 204.433594 Z M 175.402344 209.273438 L 175.402344 214.113281 L 170.566406 214.113281 L 170.566406 209.273438 Z M 160.886719 209.273438 L 165.726562 209.273438 L 165.726562 214.113281 L 160.886719 214.113281 Z M 189.917969 214.113281 L 180.242188 214.113281 L 180.242188 209.273438 L 189.917969 209.273438 Z M 189.917969 214.113281 " fill-opacity="1" fill-rule="nonzero"/><path fill="#000000" d="M 206.855469 223.789062 L 211.695312 223.789062 L 211.695312 214.113281 L 223.789062 214.113281 L 223.789062 209.273438 L 211.695312 209.273438 L 211.695312 199.597656 L 223.789062 199.597656 L 223.789062 194.757812 L 206.855469 194.757812 Z M 206.855469 223.789062 " fill-opacity="1" fill-rule="nonzero"/></svg>