<svg xmlns="http://www.w3.org/2000/svg" xmlns:xlink="http://www.w3.org/1999/xlink" width="500" zoomAndPan="magnify" viewBox="0 0 375 374.999991" height="500" preserveAspectRatio="xMidYMid meet" version="1.0"><defs><clipPath id="ccd5f240fe"><path d="M 0 23.164062 L 375 23.164062 L 375 351.664062 L 0 351.664062 Z M 0 23.164062 " clip-rule="nonzero"/></clipPath><clipPath id="bdfa2a6963"><path d="M 199 112.5 L 262.5 112.5 L 262.5 166 L 199 166 Z M 199 112.5 " clip-rule="nonzero"/></clipPath><clipPath id="5ce37db52e"><path d="M 112.5 139 L 255 139 L 255 262.5 L 112.5 262.5 Z M 112.5 139 " clip-rule="nonzero"/></clipPath></defs><g clip-path="url(#ccd5f240fe)"><path fill="#000000" d="M 280.683594 23.164062 L 94.316406 23.164062 L 0.00390625 187.414062 L 94.316406 351.664062 L 280.683594 351.664062 L 374.996094 187.414062 L 280.683594 23.164062 M 275.550781 342.765625 L 99.449219 342.765625 L 10.265625 187.414062 L 99.449219 32.0625 L 275.550781 32.0625 L 364.734375 187.414062 L 275.550781 342.765625 " fill-opacity="1" fill-rule="nonzero"/></g><path fill="#000000" d="M 156.046875 204.433594 C 161.382812 204.433594 165.726562 200.09375 165.726562 194.757812 L 160.886719 194.757812 C 160.886719 197.425781 158.714844 199.597656 156.046875 199.597656 C 153.378906 199.597656 151.210938 197.425781 151.210938 194.757812 L 146.371094 194.757812 C 146.371094 200.09375 150.710938 204.433594 156.046875 204.433594 Z M 156.046875 204.433594 " fill-opacity="1" fill-rule="nonzero"/><path fill="#000000" d="M 148.789062 185.082031 C 148.789062 185.402344 148.730469 185.710938 148.605469 186.007812 C 148.484375 186.304688 148.308594 186.566406 148.082031 186.792969 C 147.855469 187.019531 147.59375 187.191406 147.296875 187.316406 C 147 187.4375 146.691406 187.5 146.371094 187.5 C 146.050781 187.5 145.742188 187.4375 145.445312 187.316406 C 145.148438 187.191406 144.886719 187.019531 144.660156 186.792969 C 144.433594 186.566406 144.257812 186.304688 144.136719 186.007812 C 144.011719 185.710938 143.953125 185.402344 143.953125 185.082031 C 143.953125 184.761719 144.011719 184.453125 144.136719 184.15625 C 144.257812 183.859375 144.433594 183.597656 144.660156 183.371094 C 144.886719 183.144531 145.148438 182.96875 145.445312 182.84375 C 145.742188 182.722656 146.050781 182.660156 146.371094 182.660156 C 146.691406 182.660156 147 182.722656 147.296875 182.84375 C 147.59375 182.96875 147.855469 183.144531 148.082031 183.371094 C 148.308594 183.597656 148.484375 183.859375 148.605469 184.15625 C 148.730469 184.453125 148.789062 184.761719 148.789062 185.082031 Z M 148.789062 185.082031 " fill-opacity="1" fill-rule="nonzero"/><path fill="#000000" d="M 168.144531 185.082031 C 168.144531 185.402344 168.082031 185.710938 167.960938 186.007812 C 167.839844 186.304688 167.664062 186.566406 167.4375 186.792969 C 167.210938 187.019531 166.949219 187.191406 166.652344 187.316406 C 166.355469 187.4375 166.046875 187.5 165.726562 187.5 C 165.40625 187.5 165.097656 187.4375 164.800781 187.316406 C 164.503906 187.191406 164.242188 187.019531 164.015625 186.792969 C 163.789062 186.566406 163.613281 186.304688 163.492188 186.007812 C 163.367188 185.710938 163.304688 185.402344 163.304688 185.082031 C 163.304688 184.761719 163.367188 184.453125 163.492188 184.15625 C 163.613281 183.859375 163.789062 183.597656 164.015625 183.371094 C 164.242188 183.144531 164.503906 182.96875 164.800781 182.84375 C 165.097656 182.722656 165.40625 182.660156 165.726562 182.660156 C 166.046875 182.660156 166.355469 182.722656 166.652344 182.84375 C 166.949219 182.96875 167.210938 183.144531 167.4375 183.371094 C 167.664062 183.597656 167.839844 183.859375 167.960938 184.15625 C 168.082031 184.453125 168.144531 184.761719 168.144531 185.082031 Z M 168.144531 185.082031 " fill-opacity="1" fill-rule="nonzero"/><path fill="#000000" d="M 153.628906 182.660156 L 158.46875 182.660156 L 158.46875 192.339844 L 153.628906 192.339844 Z M 153.628906 182.660156 " fill-opacity="1" fill-rule="nonzero"/><g clip-path="url(#bdfa2a6963)"><path fill="#000000" d="M 199.597656 112.5 L 199.597656 165.726562 L 262.5 165.726562 L 262.5 112.5 Z M 233.46875 117.339844 L 247.984375 117.339844 L 247.984375 127.015625 L 233.46875 127.015625 Z M 228.628906 117.339844 L 228.628906 131.855469 L 252.824219 131.855469 L 252.824219 117.339844 L 257.660156 117.339844 L 257.660156 146.371094 L 228.628906 146.371094 L 228.628906 151.210938 L 218.953125 151.210938 L 218.953125 139.113281 L 223.789062 139.113281 L 223.789062 134.273438 L 209.273438 134.273438 L 209.273438 139.113281 L 214.113281 139.113281 L 214.113281 143.953125 L 204.433594 143.953125 L 204.433594 117.339844 Z M 218.953125 156.046875 L 228.628906 156.046875 L 228.628906 160.886719 L 218.953125 160.886719 Z M 243.144531 151.210938 L 243.144531 160.886719 L 233.46875 160.886719 L 233.46875 151.210938 Z M 204.433594 148.789062 L 214.113281 148.789062 L 214.113281 160.886719 L 204.433594 160.886719 Z M 247.984375 160.886719 L 247.984375 151.210938 L 257.660156 151.210938 L 257.660156 160.886719 Z M 247.984375 160.886719 " fill-opacity="1" fill-rule="nonzero"/></g><g clip-path="url(#5ce37db52e)"><path fill="#000000" d="M 188.542969 200.027344 L 191.296875 204.003906 L 194.757812 201.609375 L 194.757812 224.628906 C 194.097656 224.902344 193.191406 225.253906 192.054688 225.648438 C 189.222656 220.492188 184.46875 216.71875 178.714844 215.148438 L 168.144531 212.265625 L 168.144531 210.484375 L 171.046875 208.308594 C 175.289062 205.125 177.824219 200.058594 177.824219 194.757812 L 177.824219 192.339844 C 183.160156 192.339844 187.5 187.996094 187.5 182.660156 C 187.5 180.898438 187.023438 179.246094 186.199219 177.824219 L 187.5 177.824219 C 190.167969 177.824219 192.339844 175.652344 192.339844 172.984375 L 192.339844 168.144531 C 192.339844 165.476562 190.167969 163.304688 187.5 163.304688 L 187.390625 163.304688 C 186.164062 149.761719 174.746094 139.113281 160.886719 139.113281 L 151.210938 139.113281 C 137.351562 139.113281 125.933594 149.761719 124.707031 163.304688 L 124.597656 163.304688 C 121.929688 163.304688 119.757812 165.476562 119.757812 168.144531 L 119.757812 172.984375 C 119.757812 175.652344 121.929688 177.824219 124.597656 177.824219 L 125.898438 177.824219 C 125.074219 179.246094 124.597656 180.898438 124.597656 182.660156 C 124.597656 187.996094 128.9375 192.339844 134.273438 192.339844 L 134.273438 194.757812 C 134.273438 200.058594 136.808594 205.125 141.046875 208.308594 L 143.953125 210.484375 L 143.953125 212.265625 L 133.382812 215.148438 C 127.628906 216.714844 122.875 220.492188 120.042969 225.648438 C 117.417969 224.734375 116.042969 224.066406 116 224.046875 L 112.5 222.296875 L 112.5 254.316406 L 113.835938 254.988281 C 114.449219 255.292969 129.171875 262.5 156.046875 262.5 C 182.921875 262.5 197.644531 255.292969 198.257812 254.988281 L 199.597656 254.316406 L 199.597656 228.628906 L 247.984375 228.628906 L 247.984375 201.609375 L 251.445312 204.003906 L 254.199219 200.027344 L 221.371094 177.300781 Z M 230.316406 211.695312 L 223.789062 219.527344 L 223.789062 203.859375 Z M 226.535156 199.597656 L 240.398438 199.597656 L 233.46875 207.914062 Z M 233.46875 215.472656 L 240.398438 223.789062 L 226.535156 223.789062 Z M 236.617188 211.695312 L 243.144531 203.859375 L 243.144531 219.527344 Z M 223.789062 194.757812 L 223.789062 184.859375 L 238.089844 194.757812 Z M 218.953125 194.757812 L 204.652344 194.757812 L 218.953125 184.859375 Z M 182.660156 182.660156 C 182.660156 185.328125 180.492188 187.5 177.824219 187.5 L 177.824219 177.824219 C 180.492188 177.824219 182.660156 179.992188 182.660156 182.660156 Z M 182.523438 163.304688 L 163.304688 163.304688 L 163.304688 144.089844 C 173.382812 145.207031 181.402344 153.230469 182.523438 163.304688 Z M 153.628906 143.953125 L 158.46875 143.953125 L 158.46875 163.304688 L 153.628906 163.304688 Z M 148.789062 144.089844 L 148.789062 163.304688 L 129.574219 163.304688 C 130.691406 153.230469 138.714844 145.207031 148.789062 144.089844 Z M 124.59375 168.144531 C 124.59375 168.144531 124.59375 168.144531 124.597656 168.144531 L 187.5 168.144531 L 187.5 172.984375 L 124.597656 172.984375 Z M 129.433594 182.660156 C 129.433594 179.992188 131.605469 177.824219 134.273438 177.824219 L 134.273438 187.5 C 131.605469 187.5 129.433594 185.328125 129.433594 182.660156 Z M 139.113281 194.757812 L 139.113281 177.824219 L 172.984375 177.824219 L 172.984375 194.757812 C 172.984375 198.546875 171.175781 202.164062 168.144531 204.433594 L 163.304688 208.066406 L 163.304688 214.113281 C 163.304688 218.113281 160.050781 221.371094 156.046875 221.371094 C 152.046875 221.371094 148.789062 218.113281 148.789062 214.113281 L 148.789062 208.066406 L 143.953125 204.433594 C 140.921875 202.164062 139.113281 198.546875 139.113281 194.757812 Z M 134.65625 219.816406 L 144.34375 217.171875 C 145.703125 222.367188 150.433594 226.210938 156.046875 226.210938 C 161.660156 226.210938 166.394531 222.367188 167.753906 217.171875 L 177.441406 219.816406 C 181.589844 220.945312 185.070312 223.554688 187.3125 227.125 C 180.535156 229.003906 169.964844 231.046875 156.046875 231.046875 C 142.132812 231.046875 131.5625 229.003906 124.785156 227.125 C 127.027344 223.554688 130.507812 220.949219 134.65625 219.816406 Z M 194.757812 251.242188 C 190.648438 252.929688 177.21875 257.660156 156.046875 257.660156 C 134.875 257.660156 121.441406 252.925781 117.339844 251.242188 L 117.339844 229.835938 C 123.222656 232.027344 136.382812 235.886719 156.046875 235.886719 C 175.714844 235.886719 188.875 232.027344 194.757812 229.835938 Z M 199.597656 199.597656 L 218.953125 199.597656 L 218.953125 223.789062 L 199.597656 223.789062 Z M 199.597656 199.597656 " fill-opacity="1" fill-rule="nonzero"/></g></svg>