<svg xmlns="http://www.w3.org/2000/svg" xmlns:xlink="http://www.w3.org/1999/xlink" width="500" zoomAndPan="magnify" viewBox="0 0 375 374.999991" height="500" preserveAspectRatio="xMidYMid meet" version="1.0"><defs><clipPath id="f48c3bb636"><path d="M 0 23.164062 L 375 23.164062 L 375 351.664062 L 0 351.664062 Z M 0 23.164062 " clip-rule="nonzero"/></clipPath><clipPath id="f4ca80c456"><path d="M 112.5 112.5 L 262.5 112.5 L 262.5 262.5 L 112.5 262.5 Z M 112.5 112.5 " clip-rule="nonzero"/></clipPath></defs><g clip-path="url(#f48c3bb636)"><path fill="#000000" d="M 280.683594 23.164062 L 94.316406 23.164062 L 0.00390625 187.414062 L 94.316406 351.664062 L 280.683594 351.664062 L 374.996094 187.414062 L 280.683594 23.164062 M 275.550781 342.765625 L 99.449219 342.765625 L 10.265625 187.414062 L 99.449219 32.0625 L 275.550781 32.0625 L 364.734375 187.414062 L 275.550781 342.765625 " fill-opacity="1" fill-rule="nonzero"/></g><g clip-path="url(#f4ca80c456)"><path fill="#000000" d="M 244.28125 197.929688 L 244.28125 187.5 C 244.28125 187.449219 244.277344 187.402344 244.277344 187.351562 C 244.195312 156.113281 218.753906 130.71875 187.496094 130.71875 C 156.1875 130.71875 130.714844 156.191406 130.714844 187.5 C 130.714844 187.582031 130.71875 187.660156 130.722656 187.738281 L 130.722656 197.9375 L 118.28125 186.261719 C 118.945312 148.65625 149.742188 118.269531 187.5 118.269531 C 225.257812 118.269531 256.054688 148.65625 256.71875 186.261719 Z M 220.914062 256.730469 L 238.507812 237.140625 L 238.507812 256.730469 Z M 193.96875 232.496094 L 234.925781 232.496094 L 214.445312 255.296875 Z M 187.5 233.929688 L 207.980469 256.730469 L 167.019531 256.730469 Z M 140.074219 232.496094 L 181.03125 232.496094 L 160.550781 255.296875 Z M 136.496094 237.148438 L 154.085938 256.730469 L 136.496094 256.730469 Z M 136.492188 187.5 C 136.492188 187.421875 136.488281 187.34375 136.484375 187.265625 C 136.609375 159.246094 159.445312 136.488281 187.496094 136.488281 C 215.621094 136.488281 238.507812 159.371094 238.507812 187.5 C 238.507812 187.546875 238.507812 187.597656 238.511719 187.644531 L 238.515625 226.726562 L 136.496094 226.726562 Z M 262.5 187.5 C 262.5 146.144531 228.855469 112.5 187.5 112.5 C 146.144531 112.5 112.5 146.144531 112.5 187.5 C 112.5 188.296875 112.828125 189.058594 113.410156 189.605469 L 130.726562 205.847656 L 130.722656 259.617188 C 130.722656 261.207031 132.011719 262.5 133.605469 262.5 L 241.394531 262.5 C 241.394531 262.5 241.394531 262.5 241.398438 262.5 C 241.398438 262.5 241.398438 262.5 241.402344 262.5 C 242.992188 262.5 244.285156 261.207031 244.285156 259.617188 L 244.28125 205.839844 L 261.589844 189.605469 C 262.171875 189.058594 262.5 188.296875 262.5 187.5 " fill-opacity="1" fill-rule="nonzero"/></g><path fill="#000000" d="M 187.5 193.492188 C 184.195312 193.492188 181.507812 190.804688 181.507812 187.5 C 181.507812 184.195312 184.195312 181.507812 187.5 181.507812 C 190.804688 181.507812 193.492188 184.195312 193.492188 187.5 C 193.492188 190.804688 190.804688 193.492188 187.5 193.492188 Z M 220.09375 179.714844 C 218.964844 178.589844 217.140625 178.589844 216.015625 179.714844 C 214.886719 180.84375 214.886719 182.667969 216.015625 183.796875 L 216.835938 184.617188 L 198.886719 184.617188 C 197.832031 180.449219 194.550781 177.167969 190.382812 176.113281 L 190.382812 158.171875 L 191.203125 158.992188 C 192.328125 160.117188 194.15625 160.117188 195.285156 158.992188 C 196.410156 157.867188 196.410156 156.039062 195.285156 154.914062 L 189.539062 149.167969 C 189 148.625 188.265625 148.324219 187.5 148.324219 C 186.734375 148.324219 186 148.625 185.460938 149.167969 L 179.714844 154.914062 C 178.589844 156.039062 178.589844 157.863281 179.714844 158.992188 C 180.277344 159.554688 181.015625 159.835938 181.753906 159.835938 C 182.492188 159.835938 183.230469 159.554688 183.796875 158.992188 L 184.617188 158.171875 L 184.617188 176.113281 C 180.449219 177.167969 177.167969 180.449219 176.113281 184.617188 L 158.164062 184.617188 L 158.984375 183.796875 C 160.113281 182.667969 160.113281 180.84375 158.984375 179.714844 C 157.859375 178.589844 156.03125 178.589844 154.90625 179.714844 L 149.160156 185.460938 C 148.621094 186 148.316406 186.734375 148.316406 187.5 C 148.316406 188.265625 148.621094 189 149.160156 189.539062 L 154.90625 195.285156 C 155.46875 195.847656 156.207031 196.128906 156.945312 196.128906 C 157.683594 196.128906 158.421875 195.847656 158.984375 195.285156 C 160.113281 194.15625 160.113281 192.332031 158.984375 191.203125 L 158.164062 190.386719 L 176.113281 190.386719 C 177.402344 195.476562 182.011719 199.261719 187.5 199.261719 C 192.988281 199.261719 197.597656 195.476562 198.886719 190.386719 L 216.835938 190.386719 L 216.015625 191.203125 C 214.886719 192.332031 214.886719 194.15625 216.015625 195.285156 C 216.578125 195.847656 217.316406 196.128906 218.054688 196.128906 C 218.792969 196.128906 219.53125 195.847656 220.09375 195.285156 L 225.839844 189.539062 C 226.378906 189 226.683594 188.265625 226.683594 187.5 C 226.683594 186.734375 226.378906 186 225.839844 185.460938 L 220.09375 179.714844 " fill-opacity="1" fill-rule="nonzero"/></svg>