<svg xmlns="http://www.w3.org/2000/svg" xmlns:xlink="http://www.w3.org/1999/xlink" width="500" zoomAndPan="magnify" viewBox="0 0 375 374.999991" height="500" preserveAspectRatio="xMidYMid meet" version="1.0"><defs><clipPath id="34e8b1f231"><path d="M 0 23.164062 L 375 23.164062 L 375 351.664062 L 0 351.664062 Z M 0 23.164062 " clip-rule="nonzero"/></clipPath><clipPath id="8e519b2b82"><path d="M 102.386719 118.78125 L 272.636719 118.78125 L 272.636719 274 L 102.386719 274 Z M 102.386719 118.78125 " clip-rule="nonzero"/></clipPath></defs><g clip-path="url(#34e8b1f231)"><path fill="#000000" d="M 280.683594 23.164062 L 94.316406 23.164062 L 0.00390625 187.414062 L 94.316406 351.664062 L 280.683594 351.664062 L 374.996094 187.414062 L 280.683594 23.164062 M 275.550781 342.765625 L 99.449219 342.765625 L 10.265625 187.414062 L 99.449219 32.0625 L 275.550781 32.0625 L 364.734375 187.414062 L 275.550781 342.765625 " fill-opacity="1" fill-rule="nonzero"/></g><g clip-path="url(#8e519b2b82)"><path fill="#000000" d="M 263.289062 118.78125 L 111.734375 118.78125 C 106.617188 118.78125 102.460938 122.9375 102.460938 128.046875 L 102.460938 224.273438 C 102.460938 229.382812 106.617188 233.535156 111.734375 233.535156 L 206.1875 233.535156 C 207.054688 236.710938 208.488281 239.644531 210.382812 242.234375 C 205.304688 249.398438 201.300781 257.554688 198.496094 266.511719 C 198.328125 267.050781 198.511719 267.640625 198.960938 267.984375 C 199.410156 268.328125 200.023438 268.359375 200.503906 268.058594 C 202.582031 266.75 208.660156 263.527344 211.703125 264.277344 C 214.335938 264.925781 217.375 270.066406 218.675781 273.152344 C 218.886719 273.65625 219.382812 273.980469 219.917969 273.980469 C 219.992188 273.980469 220.070312 273.972656 220.144531 273.960938 C 220.765625 273.855469 221.230469 273.339844 221.265625 272.710938 C 221.699219 265.597656 223.761719 258.921875 227.363281 252.84375 C 228.882812 253.113281 230.441406 253.28125 232.035156 253.28125 C 233.632812 253.28125 235.1875 253.113281 236.710938 252.84375 C 240.308594 258.921875 242.371094 265.597656 242.808594 272.710938 C 242.84375 273.339844 243.308594 273.855469 243.929688 273.960938 C 244.003906 273.972656 244.082031 273.980469 244.15625 273.980469 C 244.691406 273.980469 245.1875 273.660156 245.398438 273.152344 C 246.699219 270.066406 249.738281 264.925781 252.371094 264.277344 C 255.425781 263.523438 261.488281 266.75 263.570312 268.058594 C 264.050781 268.359375 264.667969 268.332031 265.113281 267.984375 C 265.5625 267.640625 265.746094 267.050781 265.578125 266.511719 C 262.769531 257.550781 258.765625 249.394531 253.691406 242.234375 C 255.585938 239.644531 257.019531 236.710938 257.886719 233.535156 L 263.292969 233.535156 C 268.40625 233.535156 272.566406 229.378906 272.566406 224.273438 L 272.566406 128.046875 C 272.5625 122.9375 268.402344 118.78125 263.289062 118.78125 Z M 232.035156 199.679688 C 218.984375 199.679688 208.09375 209.042969 205.710938 221.398438 L 114.636719 221.398438 L 114.636719 130.917969 L 260.386719 130.917969 L 260.386719 221.398438 L 258.359375 221.398438 C 255.976562 209.042969 245.085938 199.679688 232.035156 199.679688 Z M 219.0625 268.007812 C 217.472656 265.371094 215.105469 262.339844 212.351562 261.65625 C 209.335938 260.910156 205.0625 262.601562 202.164062 264.046875 C 204.707031 256.886719 208.0625 250.304688 212.15625 244.40625 C 215.460938 248.0625 219.742188 250.804688 224.601562 252.210938 C 221.796875 257.140625 219.9375 262.429688 219.0625 268.007812 Z M 207.910156 226.480469 C 207.910156 213.191406 218.734375 202.378906 232.035156 202.378906 C 245.335938 202.378906 256.160156 213.191406 256.160156 226.480469 C 256.160156 239.769531 245.335938 250.582031 232.035156 250.582031 C 218.734375 250.582031 207.910156 239.769531 207.910156 226.480469 Z M 261.90625 264.050781 C 259.011719 262.601562 254.742188 260.910156 251.71875 261.660156 C 248.964844 262.339844 246.597656 265.371094 245.007812 268.011719 C 244.132812 262.429688 242.273438 257.140625 239.46875 252.210938 C 244.332031 250.808594 248.609375 248.0625 251.917969 244.410156 C 256.007812 250.304688 259.367188 256.886719 261.90625 264.050781 Z M 269.863281 224.273438 C 269.863281 227.894531 266.914062 230.839844 263.289062 230.839844 L 258.472656 230.839844 C 258.707031 229.417969 258.859375 227.96875 258.859375 226.480469 C 258.859375 225.675781 258.808594 224.882812 258.738281 224.09375 L 261.734375 224.09375 C 262.484375 224.09375 263.085938 223.492188 263.085938 222.746094 L 263.085938 129.570312 C 263.085938 128.828125 262.484375 128.222656 261.734375 128.222656 L 113.285156 128.222656 C 112.539062 128.222656 111.9375 128.828125 111.9375 129.570312 L 111.9375 222.746094 C 111.9375 223.492188 112.539062 224.09375 113.285156 224.09375 L 205.332031 224.09375 C 205.261719 224.882812 205.210938 225.675781 205.210938 226.480469 C 205.210938 227.96875 205.363281 229.417969 205.597656 230.839844 L 111.734375 230.839844 C 108.109375 230.839844 105.160156 227.894531 105.160156 224.273438 L 105.160156 128.046875 C 105.160156 124.425781 108.109375 121.476562 111.734375 121.476562 L 263.289062 121.476562 C 266.914062 121.476562 269.863281 124.425781 269.863281 128.046875 Z M 269.863281 224.273438 " fill-opacity="1" fill-rule="nonzero"/></g><path fill="#000000" d="M 145.238281 151.84375 L 229.117188 151.84375 C 229.863281 151.84375 230.464844 151.238281 230.464844 150.492188 L 230.464844 138.285156 C 230.464844 137.542969 229.863281 136.9375 229.117188 136.9375 L 145.238281 136.9375 C 144.492188 136.9375 143.890625 137.542969 143.890625 138.285156 L 143.890625 150.492188 C 143.890625 151.238281 144.492188 151.84375 145.238281 151.84375 Z M 146.589844 139.632812 L 227.765625 139.632812 L 227.765625 149.144531 L 146.589844 149.144531 Z M 146.589844 139.632812 " fill-opacity="1" fill-rule="nonzero"/><path fill="#000000" d="M 245.535156 166.1875 L 132.511719 166.1875 C 131.761719 166.1875 131.160156 166.789062 131.160156 167.535156 C 131.160156 168.28125 131.761719 168.882812 132.511719 168.882812 L 245.535156 168.882812 C 246.28125 168.882812 246.882812 168.28125 246.882812 167.535156 C 246.882812 166.789062 246.28125 166.1875 245.535156 166.1875 Z M 245.535156 166.1875 " fill-opacity="1" fill-rule="nonzero"/><path fill="#000000" d="M 171.839844 182.363281 C 172.585938 182.363281 173.191406 181.757812 173.191406 181.015625 C 173.191406 180.269531 172.585938 179.664062 171.839844 179.664062 L 142.4375 179.664062 C 141.691406 179.664062 141.089844 180.269531 141.089844 181.015625 C 141.089844 181.757812 141.691406 182.363281 142.4375 182.363281 Z M 171.839844 182.363281 " fill-opacity="1" fill-rule="nonzero"/><path fill="#000000" d="M 238.914062 179.664062 L 192.386719 179.664062 C 191.636719 179.664062 191.035156 180.269531 191.035156 181.015625 C 191.035156 181.757812 191.636719 182.363281 192.386719 182.363281 L 238.914062 182.363281 C 239.660156 182.363281 240.265625 181.757812 240.265625 181.015625 C 240.265625 180.269531 239.660156 179.664062 238.914062 179.664062 Z M 238.914062 179.664062 " fill-opacity="1" fill-rule="nonzero"/><path fill="#000000" d="M 181.714844 203.722656 C 178.273438 202.398438 173.542969 202.589844 168.472656 204.289062 C 169.546875 200.675781 168.101562 199.242188 167.128906 198.707031 C 166.28125 198.238281 164.542969 197.273438 153.289062 203.84375 C 155.210938 199.941406 154.972656 198.300781 154.605469 197.394531 C 154.292969 196.621094 153.699219 196.074219 152.886719 195.816406 C 146.84375 193.890625 133.722656 207.84375 131.152344 210.660156 C 130.652344 211.207031 130.691406 212.0625 131.242188 212.5625 C 131.5 212.800781 131.828125 212.917969 132.152344 212.917969 C 132.515625 212.917969 132.882812 212.769531 133.148438 212.476562 C 139.050781 206.003906 148.824219 197.351562 152.09375 198.390625 C 152.101562 198.398438 152.617188 199.410156 150.398438 203.570312 C 149.890625 204.519531 150.070312 205.65625 150.851562 206.402344 C 151.628906 207.148438 152.777344 207.28125 153.710938 206.726562 C 161.808594 201.925781 165.183594 200.921875 165.820312 201.066406 C 166.347656 201.355469 166.175781 202.59375 165.84375 203.660156 C 165.554688 204.578125 165.804688 205.566406 166.484375 206.238281 C 167.183594 206.925781 168.199219 207.15625 169.132812 206.855469 C 173.738281 205.347656 177.863281 205.128906 180.742188 206.238281 C 181.441406 206.503906 182.21875 206.160156 182.488281 205.464844 C 182.753906 204.769531 182.410156 203.988281 181.714844 203.722656 Z M 181.714844 203.722656 " fill-opacity="1" fill-rule="nonzero"/><path fill="#000000" d="M 232.035156 205.808594 C 220.625 205.808594 211.34375 215.082031 211.34375 226.480469 C 211.34375 237.878906 220.625 247.152344 232.035156 247.152344 C 243.445312 247.152344 252.726562 237.878906 252.726562 226.480469 C 252.726562 215.082031 243.445312 205.808594 232.035156 205.808594 Z M 232.035156 244.457031 C 222.117188 244.457031 214.046875 236.390625 214.046875 226.480469 C 214.046875 216.570312 222.117188 208.503906 232.035156 208.503906 C 241.953125 208.503906 250.027344 216.570312 250.027344 226.480469 C 250.027344 236.390625 241.957031 244.457031 232.035156 244.457031 Z M 232.035156 244.457031 " fill-opacity="1" fill-rule="nonzero"/><path fill="#000000" d="M 245.390625 220.824219 C 245.175781 220.335938 244.6875 220.019531 244.152344 220.019531 L 236.382812 220.019531 L 233.238281 213.855469 C 232.777344 212.953125 231.296875 212.953125 230.835938 213.855469 L 227.6875 220.019531 L 219.917969 220.019531 C 219.382812 220.019531 218.898438 220.335938 218.683594 220.824219 C 218.46875 221.316406 218.5625 221.886719 218.925781 222.28125 L 224.40625 228.25 L 221.371094 235.726562 C 221.160156 236.25 221.292969 236.851562 221.714844 237.230469 C 222.132812 237.609375 222.746094 237.691406 223.246094 237.429688 L 232.039062 232.851562 L 240.832031 237.429688 C 241.027344 237.53125 241.242188 237.582031 241.453125 237.582031 C 241.78125 237.582031 242.109375 237.460938 242.363281 237.230469 C 242.78125 236.851562 242.917969 236.25 242.707031 235.726562 L 239.667969 228.25 L 245.152344 222.28125 C 245.511719 221.886719 245.605469 221.316406 245.390625 220.824219 Z M 237.097656 227.054688 C 236.746094 227.4375 236.644531 227.992188 236.84375 228.472656 L 238.820312 233.34375 L 232.660156 230.136719 C 232.269531 229.929688 231.804688 229.929688 231.414062 230.136719 L 225.25 233.34375 L 227.230469 228.476562 C 227.425781 227.992188 227.324219 227.4375 226.972656 227.054688 L 222.992188 222.71875 L 228.515625 222.71875 C 229.023438 222.71875 229.488281 222.433594 229.71875 221.980469 L 232.039062 217.4375 L 234.359375 221.980469 C 234.589844 222.433594 235.054688 222.71875 235.5625 222.71875 L 241.085938 222.71875 Z M 237.097656 227.054688 " fill-opacity="1" fill-rule="nonzero"/></svg>