<svg xmlns="http://www.w3.org/2000/svg" xmlns:xlink="http://www.w3.org/1999/xlink" width="500" zoomAndPan="magnify" viewBox="0 0 375 374.999991" height="500" preserveAspectRatio="xMidYMid meet" version="1.0"><defs><clipPath id="676507f565"><path d="M 0 23.164062 L 375 23.164062 L 375 351.664062 L 0 351.664062 Z M 0 23.164062 " clip-rule="nonzero"/></clipPath><clipPath id="2cbe62b84e"><path d="M 105 123 L 262.617188 123 L 262.617188 259 L 105 259 Z M 105 123 " clip-rule="nonzero"/></clipPath><clipPath id="6e788d71e8"><path d="M 104.03125 104.40625 L 261.488281 104.40625 L 261.488281 261.152344 L 104.03125 261.152344 Z M 104.03125 104.40625 " clip-rule="nonzero"/></clipPath></defs><g clip-path="url(#676507f565)"><path fill="#000000" d="M 280.683594 23.164062 L 94.316406 23.164062 L 0.00390625 187.414062 L 94.316406 351.664062 L 280.683594 351.664062 L 374.996094 187.414062 L 280.683594 23.164062 M 275.550781 342.765625 L 99.449219 342.765625 L 10.265625 187.414062 L 99.449219 32.0625 L 275.550781 32.0625 L 364.734375 187.414062 L 275.550781 342.765625 " fill-opacity="1" fill-rule="nonzero"/></g><g clip-path="url(#2cbe62b84e)"><path fill="#000000" d="M 262.425781 225.601562 C 262.285156 224.652344 261.402344 223.996094 260.453125 224.136719 L 253.039062 225.234375 L 249.5625 225.746094 L 231.703125 228.382812 C 230.753906 228.527344 230.097656 229.410156 230.238281 230.359375 C 230.363281 231.222656 231.105469 231.84375 231.953125 231.84375 C 232.039062 231.84375 232.125 231.835938 232.210938 231.824219 L 260.960938 227.578125 C 261.910156 227.433594 262.566406 226.550781 262.425781 225.601562 Z M 238.605469 250.035156 L 212.496094 243.742188 L 212.496094 234.738281 L 226.308594 232.695312 C 227.257812 232.554688 227.914062 231.675781 227.777344 230.722656 C 227.636719 229.773438 226.753906 229.121094 225.800781 229.257812 L 218.183594 230.382812 L 214.703125 230.898438 L 210.503906 231.519531 C 209.648438 231.644531 209.019531 232.375 209.019531 233.238281 L 209.019531 245.113281 C 209.019531 245.914062 209.570312 246.617188 210.351562 246.804688 L 237.792969 253.414062 C 237.929688 253.449219 238.066406 253.464844 238.203125 253.464844 C 238.984375 253.464844 239.699219 252.929688 239.890625 252.132812 C 240.117188 251.199219 239.539062 250.261719 238.605469 250.035156 Z M 259.859375 255.15625 L 245.609375 251.722656 C 244.671875 251.496094 243.734375 252.070312 243.507812 253.003906 C 243.28125 253.9375 243.859375 254.875 244.792969 255.101562 L 259.042969 258.535156 C 259.179688 258.566406 259.320312 258.582031 259.457031 258.582031 C 260.238281 258.582031 260.949219 258.046875 261.140625 257.253906 C 261.367188 256.320312 260.792969 255.378906 259.859375 255.15625 Z M 161.902344 233.695312 L 157.644531 231.011719 C 157.109375 230.675781 156.429688 230.65625 155.878906 230.960938 C 155.324219 231.265625 154.976562 231.847656 154.976562 232.484375 L 154.976562 246.546875 L 156.71875 246.171875 L 158.457031 245.804688 L 159.238281 245.636719 L 160.972656 245.265625 L 162.714844 244.894531 L 162.714844 235.164062 C 162.714844 234.566406 162.40625 234.011719 161.902344 233.695312 Z M 106.042969 200.414062 C 105.578125 201.253906 105.882812 202.3125 106.722656 202.777344 L 116.019531 207.914062 L 119.488281 209.828125 L 137.277344 219.660156 C 138.445312 219.019531 138.742188 217.476562 137.898438 216.449219 L 137.277344 215.6875 L 108.40625 199.734375 C 107.566406 199.269531 106.507812 199.574219 106.042969 200.414062 Z M 132.632812 220.832031 L 122.851562 215.832031 C 122.3125 215.558594 121.667969 215.585938 121.152344 215.898438 C 120.636719 216.214844 120.320312 216.777344 120.320312 217.382812 L 120.320312 244.101562 C 120.320312 244.613281 120.546875 245.101562 120.941406 245.429688 C 121.257812 245.695312 121.652344 245.839844 122.058594 245.839844 C 122.160156 245.839844 122.257812 245.828125 122.359375 245.8125 L 132.140625 244.109375 C 132.972656 243.964844 133.582031 243.242188 133.582031 242.398438 L 133.582031 222.378906 C 133.582031 221.726562 133.214844 221.128906 132.632812 220.832031 Z M 212.496094 190.078125 L 212.496094 197.527344 L 257.714844 173.675781 L 257.714844 130.027344 L 212.496094 178.308594 Z M 209.015625 200.40625 L 209.015625 177.621094 C 209.015625 177.179688 209.1875 176.753906 209.484375 176.433594 L 215.054688 170.488281 L 218.53125 166.777344 L 223.945312 160.996094 L 227.425781 157.28125 L 235.566406 148.589844 L 239.015625 144.902344 L 241.335938 142.425781 L 244.816406 138.714844 L 251.046875 132.058594 L 254.523438 128.34375 L 258.183594 124.4375 C 258.671875 123.917969 259.425781 123.746094 260.09375 124.007812 C 260.753906 124.269531 261.191406 124.914062 261.191406 125.625 L 261.191406 174.722656 C 261.191406 175.371094 260.835938 175.960938 260.265625 176.261719 L 218.183594 198.457031 L 214.703125 200.292969 L 211.566406 201.945312 C 211.316406 202.082031 211.035156 202.148438 210.757812 202.148438 C 210.445312 202.148438 210.132812 202.0625 209.859375 201.894531 C 209.335938 201.582031 209.015625 201.019531 209.015625 200.40625 Z M 193.09375 231.820312 L 196.570312 231.820312 L 196.570312 225.292969 L 193.09375 225.292969 Z M 180.449219 231.820312 L 183.925781 231.820312 L 183.925781 225.292969 L 180.449219 225.292969 Z M 193.09375 201.0625 L 196.570312 201.0625 L 196.570312 196.460938 L 193.09375 196.460938 Z M 180.449219 201.0625 L 183.925781 201.0625 L 183.925781 196.460938 L 180.449219 196.460938 Z M 194.289062 177.332031 L 190.808594 177.332031 L 190.808594 182.832031 L 194.289062 182.832031 Z M 182.730469 182.832031 L 186.207031 182.832031 L 186.207031 177.332031 L 182.730469 177.332031 Z M 193.09375 165.746094 L 196.570312 165.746094 L 196.570312 158.066406 L 193.09375 158.066406 Z M 183.925781 165.746094 L 180.449219 165.746094 L 180.449219 158.066406 L 183.925781 158.066406 L 183.925781 165.746094 " fill-opacity="1" fill-rule="nonzero"/></g><g clip-path="url(#6e788d71e8)"><path fill="#545454" d="M 115.320312 105.28125 L 115.320312 105.277344 C 115.238281 105.199219 115.148438 105.125 115.058594 105.066406 C 115.035156 105.050781 115.007812 105.039062 114.988281 105.027344 C 114.914062 104.980469 114.835938 104.9375 114.757812 104.902344 C 114.722656 104.890625 114.6875 104.882812 114.65625 104.871094 C 114.582031 104.847656 114.507812 104.820312 114.433594 104.804688 C 114.320312 104.78125 114.207031 104.769531 114.089844 104.769531 L 105.972656 104.769531 C 105.011719 104.769531 104.234375 105.546875 104.234375 106.507812 C 104.234375 107.46875 105.011719 108.246094 105.972656 108.246094 L 112.351562 108.246094 L 112.351562 193.988281 C 112.351562 194.949219 113.128906 195.726562 114.089844 195.726562 C 115.050781 195.726562 115.828125 194.949219 115.828125 193.988281 L 115.828125 110.707031 L 131.769531 126.636719 L 131.769531 209.921875 C 131.769531 210.882812 132.550781 211.660156 133.507812 211.660156 C 134.46875 211.660156 135.246094 210.882812 135.246094 209.921875 L 135.246094 125.917969 C 135.246094 125.457031 135.066406 125.015625 134.738281 124.6875 Z M 234.707031 178.605469 L 214.800781 191.21875 C 213.988281 191.734375 213.75 192.804688 214.261719 193.617188 C 214.59375 194.140625 215.160156 194.425781 215.734375 194.425781 C 216.050781 194.425781 216.375 194.339844 216.664062 194.152344 L 236.570312 181.542969 C 237.378906 181.027344 237.621094 179.953125 237.105469 179.144531 C 236.589844 178.332031 235.515625 178.089844 234.707031 178.605469 Z M 217.472656 182.808594 L 233.4375 171.398438 L 234.148438 163.164062 L 217.472656 180.105469 Z M 213.992188 186.1875 L 213.992188 179.394531 C 213.992188 178.9375 214.171875 178.5 214.492188 178.175781 L 235.0625 157.285156 C 235.574219 156.761719 236.359375 156.617188 237.027344 156.921875 C 237.695312 157.230469 238.097656 157.921875 238.03125 158.652344 L 236.835938 172.492188 C 236.792969 173 236.53125 173.460938 236.117188 173.757812 L 216.742188 187.601562 C 216.445312 187.816406 216.089844 187.921875 215.734375 187.921875 C 215.460938 187.921875 215.1875 187.859375 214.9375 187.730469 C 214.359375 187.4375 213.992188 186.835938 213.992188 186.1875 Z M 195.105469 251.15625 L 195.105469 232.992188 L 181.917969 232.992188 L 181.917969 251.15625 Z M 177.3125 254.636719 L 177.3125 257.679688 L 199.777344 257.679688 L 199.777344 254.636719 Z M 198.582031 239.613281 L 209.015625 239.613281 L 209.015625 243.089844 L 198.582031 243.089844 L 198.582031 251.15625 L 201.515625 251.15625 C 202.476562 251.15625 203.253906 251.9375 203.253906 252.898438 L 203.253906 259.414062 C 203.253906 260.375 202.476562 261.152344 201.515625 261.152344 L 175.574219 261.152344 C 174.613281 261.152344 173.835938 260.375 173.835938 259.414062 L 173.835938 252.898438 C 173.835938 251.9375 174.613281 251.15625 175.574219 251.15625 L 178.4375 251.15625 L 178.4375 243.089844 L 166.265625 243.089844 L 166.265625 246.273438 C 166.261719 246.15625 166.25 246.039062 166.226562 245.925781 C 166.023438 244.984375 165.105469 244.390625 164.160156 244.585938 L 162.785156 244.878906 L 162.785156 216.21875 C 162.785156 215.257812 163.5625 214.480469 164.523438 214.480469 C 165.484375 214.480469 166.265625 215.257812 166.265625 216.21875 L 166.265625 239.613281 L 178.4375 239.613281 L 178.4375 231.253906 C 178.4375 230.292969 179.214844 229.515625 180.175781 229.515625 L 196.84375 229.515625 C 197.804688 229.515625 198.582031 230.292969 198.582031 231.253906 Z M 194.832031 194.566406 L 195.105469 194.566406 L 195.105469 184.28125 L 181.917969 184.28125 L 181.917969 194.566406 Z M 196.84375 180.808594 C 197.804688 180.808594 198.582031 181.585938 198.582031 182.542969 L 198.582031 196.304688 C 198.582031 197.265625 197.804688 198.042969 196.84375 198.042969 L 180.175781 198.042969 C 179.214844 198.042969 178.4375 197.265625 178.4375 196.304688 L 178.4375 182.542969 C 178.4375 181.585938 179.214844 180.808594 180.175781 180.808594 Z M 179.886719 156.765625 L 197.132812 156.765625 L 197.132812 147.929688 L 179.886719 147.929688 Z M 176.40625 158.503906 L 176.40625 146.191406 C 176.40625 145.230469 177.1875 144.453125 178.148438 144.453125 L 186.117188 144.453125 L 186.117188 127.796875 C 186.117188 126.839844 186.894531 126.058594 187.859375 126.058594 C 188.816406 126.058594 189.597656 126.839844 189.597656 127.796875 L 189.597656 144.453125 L 198.871094 144.453125 C 199.835938 144.453125 200.613281 145.230469 200.613281 146.191406 L 200.613281 158.503906 C 200.613281 159.460938 199.835938 160.242188 198.871094 160.242188 L 178.148438 160.242188 C 177.1875 160.242188 176.40625 159.460938 176.40625 158.503906 Z M 144.667969 134.460938 L 151.480469 134.460938 L 151.480469 131.5625 L 144.667969 131.5625 Z M 162.785156 155.914062 L 159.160156 146.011719 L 159.160156 227.734375 C 159.160156 228.691406 158.382812 229.46875 157.421875 229.46875 C 156.460938 229.46875 155.683594 228.691406 155.683594 227.734375 L 155.683594 176.460938 L 152.496094 176.460938 L 152.496094 172.988281 L 155.683594 172.988281 L 155.683594 137.9375 L 140.753906 137.9375 L 140.753906 148.277344 C 140.566406 148.117188 140.402344 147.980469 140.257812 147.871094 C 140.066406 147.675781 139.832031 147.527344 139.5625 147.4375 C 139.347656 147.351562 139.191406 147.351562 139.019531 147.351562 L 137.277344 147.351562 L 137.277344 136.199219 C 137.277344 135.238281 138.054688 134.460938 139.019531 134.460938 L 141.191406 134.460938 L 141.191406 129.828125 C 141.191406 128.867188 141.96875 128.089844 142.929688 128.089844 L 153.21875 128.089844 C 154.179688 128.089844 154.957031 128.867188 154.957031 129.828125 L 154.957031 134.460938 L 157.421875 134.460938 C 157.535156 134.460938 157.652344 134.472656 157.761719 134.496094 C 157.78125 134.5 157.808594 134.507812 157.832031 134.511719 C 157.914062 134.53125 157.992188 134.558594 158.070312 134.585938 C 158.101562 134.601562 158.132812 134.617188 158.164062 134.632812 C 158.230469 134.664062 158.292969 134.695312 158.351562 134.734375 C 158.386719 134.753906 158.414062 134.777344 158.445312 134.800781 C 158.5 134.839844 158.554688 134.882812 158.605469 134.929688 C 158.632812 134.957031 158.660156 134.984375 158.6875 135.011719 C 158.730469 135.0625 158.773438 135.113281 158.816406 135.164062 C 158.839844 135.199219 158.867188 135.234375 158.886719 135.269531 C 158.921875 135.320312 158.949219 135.375 158.976562 135.433594 C 158.996094 135.476562 159.019531 135.515625 159.039062 135.5625 C 159.042969 135.574219 159.050781 135.585938 159.058594 135.601562 L 166.15625 155.007812 C 166.230469 155.199219 166.265625 155.402344 166.265625 155.605469 L 166.265625 204.707031 C 166.265625 205.664062 165.484375 206.441406 164.523438 206.441406 C 163.5625 206.441406 162.785156 205.664062 162.785156 204.707031 Z M 166.265625 246.289062 L 166.265625 246.277344 C 166.265625 246.308594 166.257812 246.339844 166.253906 246.367188 C 166.257812 246.34375 166.265625 246.3125 166.265625 246.289062 Z M 140.753906 246.707031 L 149.015625 245.996094 L 149.015625 242.503906 L 140.753906 243.21875 Z M 140.753906 224.652344 L 149.015625 229.324219 L 149.015625 225.332031 L 140.753906 220.660156 Z M 119.488281 209.828125 L 116.019531 207.914062 C 116 210.320312 116.015625 215.789062 116.03125 219.1875 L 108.160156 216.328125 C 107.257812 216 106.261719 216.464844 105.933594 217.363281 C 105.605469 218.269531 106.070312 219.265625 106.972656 219.59375 L 108.5625 220.171875 L 108.5625 256.441406 L 112.039062 255.699219 L 112.039062 221.4375 L 117.183594 223.304688 C 117.378906 223.375 117.578125 223.410156 117.78125 223.410156 C 118.132812 223.410156 118.484375 223.300781 118.78125 223.09375 C 119.246094 222.765625 119.523438 222.230469 119.519531 221.660156 C 119.503906 218.089844 119.484375 212.980469 119.488281 209.828125 Z M 216.097656 225.515625 L 220.378906 224.695312 L 220.378906 204.03125 L 212.496094 207.972656 L 212.496094 226.207031 L 216.09375 225.515625 Z M 259.78125 220.660156 L 253.039062 221.957031 L 249.5625 222.625 L 218.183594 228.652344 L 214.703125 229.324219 L 211.085938 230.019531 C 210.976562 230.039062 210.867188 230.050781 210.757812 230.050781 C 210.355469 230.050781 209.964844 229.910156 209.648438 229.652344 C 209.25 229.324219 209.019531 228.832031 209.019531 228.3125 L 209.019531 206.898438 C 209.019531 206.242188 209.390625 205.636719 209.976562 205.34375 L 214.703125 202.980469 L 218.183594 201.242188 L 258.675781 180.992188 C 259.53125 180.5625 260.578125 180.910156 261.007812 181.765625 C 261.4375 182.625 261.089844 183.671875 260.230469 184.101562 L 223.855469 202.292969 L 223.855469 224.027344 L 259.125 217.246094 C 260.070312 217.066406 260.980469 217.683594 261.160156 218.625 C 261.34375 219.570312 260.726562 220.480469 259.78125 220.660156 Z M 244.816406 138.714844 L 241.335938 142.425781 L 241.335938 119.035156 C 241.335938 118.65625 241.460938 118.292969 241.6875 117.988281 L 251.398438 105.101562 C 251.847656 104.503906 252.628906 104.261719 253.339844 104.496094 C 254.046875 104.734375 254.523438 105.398438 254.523438 106.144531 L 254.523438 128.34375 L 251.046875 132.058594 L 251.046875 111.34375 L 244.816406 119.617188 L 244.816406 138.714844 " fill-opacity="1" fill-rule="nonzero"/></g><path fill="#000000" d="M 250.613281 172.644531 L 243.226562 177.324219 C 242.9375 177.507812 242.617188 177.59375 242.296875 177.59375 C 241.71875 177.59375 241.15625 177.308594 240.828125 176.789062 C 240.3125 175.976562 240.554688 174.902344 241.363281 174.390625 L 248.753906 169.707031 C 249.5625 169.195312 250.636719 169.433594 251.152344 170.246094 C 251.664062 171.054688 251.425781 172.128906 250.613281 172.644531 Z M 177.277344 167.046875 L 199.742188 167.046875 L 199.742188 175.882812 L 177.277344 175.882812 Z M 175.539062 179.359375 L 201.484375 179.359375 C 202.441406 179.359375 203.21875 178.582031 203.21875 177.621094 L 203.21875 165.3125 C 203.21875 164.347656 202.441406 163.570312 201.484375 163.570312 L 175.539062 163.570312 C 174.578125 163.570312 173.800781 164.347656 173.800781 165.3125 L 173.800781 177.621094 C 173.800781 178.582031 174.578125 179.359375 175.539062 179.359375 Z M 140.753906 246.707031 L 140.753906 153.09375 C 142.925781 155.25 146.070312 158.464844 149.019531 161.519531 L 149.019531 247.816406 L 140.753906 249.578125 Z M 164.160156 244.585938 L 162.789062 244.878906 L 162.714844 244.894531 L 160.972656 245.265625 L 159.238281 245.636719 L 158.457031 245.804688 L 156.71875 246.171875 L 154.976562 246.546875 L 152.496094 247.074219 L 152.496094 160.820312 C 152.496094 160.371094 152.320312 159.941406 152.007812 159.617188 C 145.191406 152.539062 142.222656 149.546875 140.753906 148.277344 C 140.566406 148.117188 140.402344 147.984375 140.257812 147.871094 C 140.066406 147.675781 139.832031 147.527344 139.5625 147.4375 C 139.351562 147.351562 139.195312 147.351562 139.019531 147.351562 L 135.246094 147.351562 L 135.246094 150.828125 L 137.277344 150.828125 L 137.277344 250.316406 L 112.039062 255.699219 L 108.5625 256.441406 L 104.449219 257.320312 C 103.511719 257.519531 102.914062 258.441406 103.113281 259.378906 C 103.285156 260.199219 104.007812 260.757812 104.8125 260.757812 C 104.933594 260.757812 105.054688 260.742188 105.175781 260.71875 L 139.378906 253.425781 L 151.117188 250.921875 L 151.121094 250.921875 L 157.066406 249.65625 L 161.324219 248.746094 L 164.875 247.992188 L 164.875 247.988281 L 164.886719 247.984375 C 164.921875 247.980469 164.949219 247.96875 164.984375 247.957031 C 165.0625 247.933594 165.140625 247.914062 165.210938 247.882812 C 165.261719 247.863281 165.308594 247.832031 165.355469 247.804688 C 165.40625 247.777344 165.460938 247.753906 165.503906 247.722656 C 165.554688 247.6875 165.601562 247.644531 165.648438 247.605469 C 165.6875 247.570312 165.730469 247.542969 165.761719 247.503906 C 165.800781 247.464844 165.835938 247.414062 165.871094 247.371094 C 165.90625 247.328125 165.945312 247.292969 165.972656 247.246094 C 166.003906 247.199219 166.023438 247.148438 166.054688 247.101562 C 166.078125 247.050781 166.109375 247 166.128906 246.949219 C 166.15625 246.894531 166.167969 246.828125 166.1875 246.769531 C 166.199219 246.722656 166.21875 246.675781 166.230469 246.625 C 166.246094 246.542969 166.25 246.457031 166.253906 246.367188 C 166.257812 246.339844 166.265625 246.308594 166.265625 246.277344 L 166.265625 246.273438 C 166.261719 246.15625 166.25 246.039062 166.226562 245.925781 C 166.023438 244.984375 165.105469 244.390625 164.160156 244.585938 Z M 253.039062 221.957031 L 253.039062 225.234375 L 249.5625 225.746094 L 249.5625 222.625 Z M 214.703125 229.324219 L 218.183594 228.65625 L 218.183594 230.382812 L 214.703125 230.898438 Z M 214.703125 200.292969 L 218.183594 198.453125 L 218.183594 201.242188 L 214.703125 202.980469 Z M 239.019531 137.792969 L 239.019531 144.902344 L 235.566406 148.589844 C 235.554688 148.5 235.539062 148.410156 235.539062 148.320312 L 235.539062 139.527344 L 227.425781 139.527344 L 227.425781 157.28125 L 223.949219 160.996094 L 223.949219 142.8125 L 218.53125 149.691406 L 218.53125 166.777344 L 215.054688 170.488281 L 215.054688 149.089844 C 215.054688 148.699219 215.183594 148.320312 215.425781 148.015625 L 224.320312 136.714844 C 224.347656 136.679688 224.378906 136.652344 224.410156 136.621094 C 224.433594 136.59375 224.453125 136.566406 224.480469 136.542969 C 224.550781 136.476562 224.625 136.414062 224.703125 136.359375 C 224.707031 136.355469 224.710938 136.351562 224.714844 136.351562 C 224.796875 136.296875 224.886719 136.246094 224.980469 136.207031 C 225.011719 136.191406 225.042969 136.183594 225.074219 136.171875 C 225.140625 136.144531 225.210938 136.125 225.277344 136.105469 C 225.316406 136.097656 225.351562 136.089844 225.386719 136.082031 C 225.464844 136.070312 225.546875 136.0625 225.632812 136.058594 C 225.648438 136.058594 225.667969 136.054688 225.683594 136.054688 L 237.277344 136.054688 C 238.238281 136.054688 239.019531 136.832031 239.019531 137.792969 Z M 150.464844 128.089844 L 146.988281 128.089844 L 146.988281 112.734375 C 146.988281 111.777344 147.765625 110.996094 148.726562 110.996094 C 149.6875 110.996094 150.464844 111.777344 150.464844 112.734375 Z M 197.136719 224.125 L 179.886719 224.125 L 179.886719 202.957031 L 197.136719 202.957031 Z M 203.367188 190.078125 L 203.367188 204.851562 L 200.613281 204.851562 L 200.613281 201.21875 C 200.613281 200.257812 199.835938 199.480469 198.871094 199.480469 L 178.148438 199.480469 C 177.1875 199.480469 176.40625 200.257812 176.40625 201.21875 L 176.40625 204.851562 L 173.511719 204.851562 L 173.511719 191.816406 C 173.511719 190.855469 172.730469 190.078125 171.769531 190.078125 L 166.265625 190.078125 L 166.265625 193.554688 L 170.03125 193.554688 L 170.03125 235.265625 C 170.03125 236.222656 170.808594 237.003906 171.769531 237.003906 C 172.730469 237.003906 173.511719 236.222656 173.511719 235.265625 L 173.511719 208.328125 L 176.40625 208.328125 L 176.40625 225.863281 C 176.40625 226.824219 177.1875 227.601562 178.148438 227.601562 L 198.871094 227.601562 C 199.835938 227.601562 200.613281 226.824219 200.613281 225.863281 L 200.613281 208.328125 L 203.367188 208.328125 L 203.367188 224.996094 C 203.367188 225.953125 204.144531 226.730469 205.105469 226.730469 C 206.066406 226.730469 206.84375 225.953125 206.84375 224.996094 L 206.84375 207.277344 C 206.9375 207.070312 206.992188 206.835938 206.992188 206.589844 C 206.992188 206.34375 206.9375 206.109375 206.84375 205.898438 L 206.84375 191.816406 L 209.019531 191.816406 L 209.019531 188.339844 L 205.105469 188.339844 C 204.144531 188.339844 203.367188 189.121094 203.367188 190.078125 " fill-opacity="1" fill-rule="nonzero"/></svg>