<svg xmlns="http://www.w3.org/2000/svg" xmlns:xlink="http://www.w3.org/1999/xlink" width="500" zoomAndPan="magnify" viewBox="0 0 375 374.999991" height="500" preserveAspectRatio="xMidYMid meet" version="1.0"><defs><clipPath id="66d1c0ca19"><path d="M 0 23.164062 L 375 23.164062 L 375 351.664062 L 0 351.664062 Z M 0 23.164062 " clip-rule="nonzero"/></clipPath><clipPath id="a682507854"><path d="M 136 195 L 237 195 L 237 253.5 L 136 253.5 Z M 136 195 " clip-rule="nonzero"/></clipPath><clipPath id="bfa14d7c33"><path d="M 112.5 149 L 165 149 L 165 196 L 112.5 196 Z M 112.5 149 " clip-rule="nonzero"/></clipPath><clipPath id="8897814968"><path d="M 208 149 L 262.5 149 L 262.5 196 L 208 196 Z M 208 149 " clip-rule="nonzero"/></clipPath><clipPath id="b42652a455"><path d="M 159 121.5 L 214 121.5 L 214 155 L 159 155 Z M 159 121.5 " clip-rule="nonzero"/></clipPath></defs><g clip-path="url(#66d1c0ca19)"><path fill="#000000" d="M 280.683594 23.164062 L 94.316406 23.164062 L 0.00390625 187.414062 L 94.316406 351.664062 L 280.683594 351.664062 L 374.996094 187.414062 L 280.683594 23.164062 M 275.550781 342.765625 L 99.449219 342.765625 L 10.265625 187.414062 L 99.449219 32.0625 L 275.550781 32.0625 L 364.734375 187.414062 L 275.550781 342.765625 " fill-opacity="1" fill-rule="nonzero"/></g><path fill="#545454" d="M 186.285156 159.785156 C 174.570312 159.785156 165.039062 169.316406 165.039062 181.03125 C 165.039062 185.691406 166.542969 190.074219 169.382812 193.707031 C 175.414062 201.417969 184.148438 219.648438 184.234375 219.832031 C 184.609375 220.617188 185.394531 221.117188 186.261719 221.128906 C 186.269531 221.128906 186.277344 221.128906 186.285156 221.128906 C 187.144531 221.128906 187.929688 220.644531 188.316406 219.878906 C 188.414062 219.6875 197.972656 200.796875 202.863281 194.546875 C 205.875 190.699219 207.53125 185.898438 207.53125 181.03125 C 207.53125 169.316406 198 159.785156 186.285156 159.785156 Z M 199.28125 191.742188 C 195.523438 196.542969 189.496094 207.738281 186.332031 213.792969 C 183.328125 207.804688 177.542969 196.753906 172.964844 190.902344 C 170.757812 188.078125 169.589844 184.667969 169.589844 181.03125 C 169.589844 171.824219 177.082031 164.335938 186.285156 164.335938 C 195.492188 164.335938 202.984375 171.824219 202.984375 181.03125 C 202.984375 184.886719 201.667969 188.691406 199.28125 191.742188 Z M 199.28125 191.742188 " fill-opacity="1" fill-rule="nonzero"/><path fill="#545454" d="M 186.433594 173.382812 C 181.914062 173.382812 178.238281 177.058594 178.238281 181.578125 C 178.238281 186.09375 181.914062 189.769531 186.433594 189.769531 C 190.949219 189.769531 194.625 186.09375 194.625 181.578125 C 194.625 177.058594 190.949219 173.382812 186.433594 173.382812 Z M 186.433594 185.21875 C 184.421875 185.21875 182.789062 183.585938 182.789062 181.578125 C 182.789062 179.566406 184.421875 177.933594 186.433594 177.933594 C 188.441406 177.933594 190.074219 179.566406 190.074219 181.578125 C 190.074219 183.585938 188.441406 185.21875 186.433594 185.21875 Z M 186.433594 185.21875 " fill-opacity="1" fill-rule="nonzero"/><g clip-path="url(#a682507854)"><path fill="#545454" d="M 236.230469 210.183594 C 236.226562 210.101562 236.21875 210.023438 236.210938 209.941406 C 236.207031 209.917969 236.203125 209.890625 236.199219 209.867188 C 236.1875 209.792969 236.171875 209.71875 236.152344 209.648438 C 236.148438 209.628906 236.144531 209.613281 236.136719 209.59375 C 236.113281 209.503906 236.082031 209.417969 236.042969 209.332031 C 236.039062 209.320312 236.035156 209.3125 236.03125 209.304688 C 235.996094 209.230469 235.960938 209.15625 235.917969 209.085938 C 235.90625 209.066406 235.894531 209.046875 235.882812 209.027344 C 235.839844 208.960938 235.796875 208.898438 235.75 208.839844 C 235.738281 208.828125 235.730469 208.8125 235.722656 208.800781 C 235.664062 208.730469 235.605469 208.667969 235.539062 208.605469 C 235.523438 208.585938 235.503906 208.574219 235.488281 208.554688 C 235.433594 208.507812 235.378906 208.460938 235.324219 208.421875 C 235.304688 208.40625 235.285156 208.390625 235.265625 208.378906 C 235.1875 208.324219 235.109375 208.273438 235.027344 208.230469 C 235.027344 208.230469 235.027344 208.226562 235.023438 208.226562 L 212.617188 196.300781 C 211.507812 195.707031 210.128906 196.128906 209.539062 197.238281 C 208.949219 198.347656 209.371094 199.726562 210.480469 200.316406 L 229.179688 210.273438 L 186.464844 233.828125 L 143.75 210.269531 L 163.058594 199.992188 C 164.167969 199.402344 164.585938 198.023438 163.996094 196.914062 C 163.40625 195.804688 162.027344 195.386719 160.917969 195.976562 L 137.90625 208.226562 C 137.90625 208.226562 137.902344 208.226562 137.902344 208.230469 C 137.820312 208.273438 137.742188 208.324219 137.664062 208.375 C 137.644531 208.390625 137.628906 208.40625 137.609375 208.417969 C 137.550781 208.460938 137.496094 208.507812 137.445312 208.554688 C 137.425781 208.570312 137.410156 208.585938 137.390625 208.601562 C 137.328125 208.664062 137.265625 208.730469 137.210938 208.800781 C 137.199219 208.8125 137.191406 208.824219 137.179688 208.839844 C 137.132812 208.898438 137.089844 208.960938 137.050781 209.027344 C 137.035156 209.046875 137.023438 209.066406 137.011719 209.085938 C 136.972656 209.15625 136.933594 209.230469 136.902344 209.304688 C 136.898438 209.3125 136.890625 209.320312 136.886719 209.328125 C 136.851562 209.414062 136.820312 209.503906 136.792969 209.59375 C 136.789062 209.609375 136.785156 209.628906 136.777344 209.648438 C 136.761719 209.71875 136.746094 209.792969 136.734375 209.867188 C 136.726562 209.890625 136.722656 209.917969 136.71875 209.941406 C 136.710938 210.023438 136.703125 210.101562 136.703125 210.183594 C 136.703125 210.195312 136.699219 210.207031 136.699219 210.21875 C 136.699219 210.21875 136.699219 210.222656 136.699219 210.226562 C 136.699219 210.226562 136.699219 210.230469 136.699219 210.234375 L 136.699219 225.359375 C 136.699219 226.191406 137.15625 226.957031 137.886719 227.355469 L 185.375 253.242188 C 185.714844 253.429688 186.089844 253.519531 186.464844 253.519531 C 186.839844 253.519531 187.214844 253.429688 187.554688 253.242188 L 235.042969 227.355469 C 235.777344 226.957031 236.230469 226.191406 236.230469 225.359375 L 236.230469 210.234375 C 236.230469 210.230469 236.230469 210.226562 236.230469 210.226562 C 236.230469 210.222656 236.230469 210.21875 236.230469 210.21875 C 236.230469 210.207031 236.230469 210.195312 236.230469 210.183594 Z M 186.464844 248.65625 L 141.25 224.007812 L 141.25 214.085938 L 185.367188 238.417969 C 185.707031 238.605469 186.085938 238.699219 186.464844 238.699219 C 186.84375 238.699219 187.222656 238.605469 187.5625 238.417969 L 231.679688 214.085938 L 231.679688 224.007812 Z M 186.464844 248.65625 " fill-opacity="1" fill-rule="nonzero"/></g><g clip-path="url(#bfa14d7c33)"><path fill="#545454" d="M 144.757812 195.816406 C 145.125 195.816406 145.496094 195.726562 145.828125 195.550781 L 159.359375 188.34375 C 160.46875 187.753906 160.890625 186.378906 160.300781 185.269531 C 159.710938 184.160156 158.332031 183.738281 157.222656 184.328125 L 144.757812 190.964844 L 117.179688 176.285156 L 117.179688 171.367188 L 143.691406 185.476562 C 144.023438 185.65625 144.390625 185.746094 144.757812 185.746094 C 145.125 185.746094 145.492188 185.65625 145.828125 185.476562 L 159.359375 178.273438 C 160.46875 177.683594 160.890625 176.304688 160.300781 175.195312 C 159.710938 174.089844 158.332031 173.667969 157.222656 174.257812 L 144.757812 180.894531 L 119.746094 167.578125 L 144.757812 154.265625 L 161.480469 163.164062 C 162.589844 163.757812 163.96875 163.335938 164.558594 162.226562 C 165.148438 161.117188 164.726562 159.742188 163.621094 159.148438 L 145.828125 149.679688 C 145.160156 149.324219 144.359375 149.324219 143.691406 149.679688 L 113.835938 165.570312 C 113.835938 165.570312 113.835938 165.570312 113.832031 165.574219 C 113.75 165.617188 113.671875 165.667969 113.59375 165.722656 C 113.574219 165.734375 113.558594 165.75 113.539062 165.765625 C 113.480469 165.808594 113.425781 165.855469 113.371094 165.902344 C 113.355469 165.917969 113.335938 165.933594 113.320312 165.949219 C 113.257812 166.011719 113.195312 166.078125 113.136719 166.148438 C 113.128906 166.160156 113.117188 166.175781 113.105469 166.191406 C 113.0625 166.25 113.015625 166.3125 112.976562 166.375 C 112.964844 166.394531 112.953125 166.414062 112.941406 166.4375 C 112.898438 166.511719 112.855469 166.589844 112.820312 166.667969 C 112.820312 166.671875 112.816406 166.675781 112.816406 166.679688 C 112.777344 166.765625 112.75 166.855469 112.722656 166.945312 C 112.714844 166.964844 112.710938 166.984375 112.707031 167.003906 C 112.6875 167.074219 112.671875 167.148438 112.660156 167.222656 C 112.65625 167.246094 112.652344 167.269531 112.652344 167.296875 C 112.640625 167.386719 112.632812 167.484375 112.632812 167.578125 L 112.632812 177.648438 C 112.632812 178.492188 113.09375 179.261719 113.835938 179.65625 L 143.691406 195.550781 C 144.023438 195.726562 144.390625 195.816406 144.757812 195.816406 Z M 144.757812 195.816406 " fill-opacity="1" fill-rule="nonzero"/></g><g clip-path="url(#8897814968)"><path fill="#545454" d="M 262.335938 167.296875 C 262.332031 167.269531 262.328125 167.246094 262.324219 167.222656 C 262.3125 167.148438 262.296875 167.074219 262.28125 167.003906 C 262.273438 166.984375 262.269531 166.964844 262.265625 166.945312 C 262.238281 166.855469 262.207031 166.765625 262.171875 166.679688 C 262.167969 166.675781 262.167969 166.671875 262.167969 166.667969 C 262.132812 166.589844 262.089844 166.511719 262.046875 166.433594 C 262.035156 166.414062 262.023438 166.394531 262.011719 166.375 C 261.96875 166.3125 261.925781 166.25 261.878906 166.1875 C 261.871094 166.175781 261.859375 166.160156 261.847656 166.148438 C 261.792969 166.078125 261.730469 166.011719 261.667969 165.949219 C 261.652344 165.933594 261.632812 165.917969 261.617188 165.902344 C 261.5625 165.851562 261.507812 165.808594 261.449219 165.761719 C 261.429688 165.75 261.410156 165.734375 261.390625 165.71875 C 261.316406 165.667969 261.234375 165.617188 261.152344 165.570312 C 261.152344 165.570312 261.152344 165.570312 261.148438 165.570312 L 231.296875 149.679688 C 230.628906 149.324219 229.828125 149.324219 229.160156 149.679688 L 209.34375 160.226562 C 208.234375 160.816406 207.816406 162.195312 208.40625 163.304688 C 208.996094 164.414062 210.375 164.832031 211.484375 164.242188 L 230.226562 154.265625 L 255.242188 167.578125 L 230.226562 180.890625 L 216.320312 173.488281 C 215.210938 172.898438 213.835938 173.320312 213.246094 174.429688 C 212.65625 175.539062 213.074219 176.914062 214.183594 177.503906 L 229.160156 185.476562 C 229.492188 185.65625 229.859375 185.742188 230.226562 185.742188 C 230.59375 185.742188 230.964844 185.65625 231.296875 185.476562 L 257.804688 171.367188 L 257.804688 176.28125 L 230.226562 190.964844 L 216.925781 183.882812 C 215.816406 183.292969 214.4375 183.710938 213.847656 184.820312 C 213.257812 185.929688 213.679688 187.308594 214.789062 187.898438 L 229.160156 195.546875 C 229.492188 195.726562 229.859375 195.816406 230.226562 195.816406 C 230.59375 195.816406 230.960938 195.726562 231.296875 195.546875 L 261.148438 179.65625 C 261.890625 179.261719 262.355469 178.488281 262.355469 177.648438 L 262.355469 167.578125 C 262.355469 167.480469 262.347656 167.386719 262.335938 167.296875 Z M 262.335938 167.296875 " fill-opacity="1" fill-rule="nonzero"/></g><g clip-path="url(#b42652a455)"><path fill="#545454" d="M 160.921875 149.230469 L 170.363281 154.257812 C 170.703125 154.4375 171.070312 154.523438 171.429688 154.523438 C 172.246094 154.523438 173.03125 154.085938 173.441406 153.316406 C 174.03125 152.207031 173.609375 150.832031 172.503906 150.242188 L 164.265625 145.855469 L 164.265625 140.691406 L 185.398438 151.941406 C 185.730469 152.117188 186.097656 152.207031 186.464844 152.207031 C 186.832031 152.207031 187.199219 152.117188 187.535156 151.941406 L 208.667969 140.691406 L 208.667969 145.855469 L 200.070312 150.429688 C 198.960938 151.019531 198.542969 152.398438 199.132812 153.507812 C 199.542969 154.277344 200.328125 154.714844 201.140625 154.714844 C 201.503906 154.714844 201.867188 154.628906 202.210938 154.445312 L 212.011719 149.230469 C 212.753906 148.832031 213.21875 148.0625 213.21875 147.222656 L 213.21875 136.902344 C 213.21875 136.808594 213.210938 136.714844 213.199219 136.621094 C 213.195312 136.597656 213.191406 136.574219 213.1875 136.546875 C 213.175781 136.472656 213.160156 136.402344 213.140625 136.328125 C 213.136719 136.308594 213.132812 136.289062 213.125 136.269531 C 213.101562 136.179688 213.070312 136.089844 213.03125 136.003906 C 213.03125 136 213.027344 136 213.027344 135.996094 C 212.992188 135.914062 212.953125 135.835938 212.90625 135.761719 C 212.894531 135.742188 212.882812 135.722656 212.871094 135.703125 C 212.832031 135.636719 212.789062 135.574219 212.742188 135.515625 C 212.730469 135.5 212.722656 135.488281 212.710938 135.472656 C 212.652344 135.402344 212.59375 135.335938 212.527344 135.273438 C 212.511719 135.257812 212.496094 135.242188 212.476562 135.226562 C 212.425781 135.179688 212.367188 135.132812 212.3125 135.089844 C 212.292969 135.074219 212.273438 135.058594 212.253906 135.046875 C 212.175781 134.992188 212.097656 134.941406 212.015625 134.898438 C 212.011719 134.898438 212.011719 134.894531 212.011719 134.894531 L 187.535156 121.867188 C 186.867188 121.511719 186.066406 121.511719 185.398438 121.867188 L 160.921875 134.894531 C 160.917969 134.894531 160.917969 134.898438 160.917969 134.898438 C 160.835938 134.941406 160.753906 134.992188 160.679688 135.046875 C 160.660156 135.058594 160.640625 135.074219 160.621094 135.089844 C 160.5625 135.132812 160.507812 135.179688 160.453125 135.226562 C 160.4375 135.242188 160.421875 135.257812 160.402344 135.273438 C 160.339844 135.335938 160.277344 135.402344 160.222656 135.472656 C 160.210938 135.488281 160.199219 135.5 160.191406 135.515625 C 160.144531 135.574219 160.101562 135.636719 160.058594 135.703125 C 160.046875 135.722656 160.035156 135.742188 160.023438 135.761719 C 159.980469 135.835938 159.941406 135.914062 159.90625 135.996094 C 159.902344 135.996094 159.902344 136 159.898438 136.003906 C 159.863281 136.089844 159.832031 136.179688 159.804688 136.269531 C 159.800781 136.289062 159.796875 136.308594 159.789062 136.328125 C 159.773438 136.402344 159.757812 136.472656 159.746094 136.546875 C 159.742188 136.574219 159.738281 136.597656 159.734375 136.621094 C 159.722656 136.714844 159.714844 136.808594 159.714844 136.902344 L 159.714844 147.222656 C 159.714844 148.0625 160.179688 148.835938 160.921875 149.230469 Z M 186.464844 126.453125 L 206.101562 136.902344 L 186.464844 147.355469 L 166.832031 136.902344 Z M 186.464844 126.453125 " fill-opacity="1" fill-rule="nonzero"/></g></svg>