<svg xmlns="http://www.w3.org/2000/svg" xmlns:xlink="http://www.w3.org/1999/xlink" width="500" zoomAndPan="magnify" viewBox="0 0 375 374.999991" height="500" preserveAspectRatio="xMidYMid meet" version="1.0"><defs><clipPath id="b9c9dbf90b"><path d="M 0 23.164062 L 375 23.164062 L 375 351.664062 L 0 351.664062 Z M 0 23.164062 " clip-rule="nonzero"/></clipPath><clipPath id="c1992244e1"><path d="M 112.5 119 L 254 119 L 254 191 L 112.5 191 Z M 112.5 119 " clip-rule="nonzero"/></clipPath><clipPath id="902933ffd2"><path d="M 121 184 L 262.5 184 L 262.5 256 L 121 256 Z M 121 184 " clip-rule="nonzero"/></clipPath></defs><g clip-path="url(#b9c9dbf90b)"><path fill="#000000" d="M 280.683594 23.164062 L 94.316406 23.164062 L 0.00390625 187.414062 L 94.316406 351.664062 L 280.683594 351.664062 L 374.996094 187.414062 L 280.683594 23.164062 M 275.550781 342.765625 L 99.449219 342.765625 L 10.265625 187.414062 L 99.449219 32.0625 L 275.550781 32.0625 L 364.734375 187.414062 L 275.550781 342.765625 " fill-opacity="1" fill-rule="nonzero"/></g><path fill="#545454" d="M 250.445312 182.636719 L 255.484375 182.261719 C 255.347656 180.515625 255.148438 178.75 254.882812 177.015625 L 249.890625 177.785156 C 250.136719 179.390625 250.324219 181.027344 250.445312 182.636719 " fill-opacity="1" fill-rule="nonzero"/><g clip-path="url(#c1992244e1)"><path fill="#545454" d="M 121.84375 190.023438 C 122.496094 190.023438 123.136719 189.777344 123.628906 189.285156 L 131.203125 181.710938 L 127.632812 178.140625 L 124.695312 181.078125 C 127.917969 149.277344 154.859375 124.367188 187.5 124.367188 C 216.925781 124.367188 242.1875 144.332031 248.945312 172.929688 L 253.855469 171.765625 C 246.566406 140.882812 219.273438 119.316406 187.5 119.316406 C 151.871094 119.316406 122.554688 146.800781 119.585938 181.671875 L 116.054688 178.140625 L 112.480469 181.710938 L 120.058594 189.285156 C 120.550781 189.777344 121.191406 190.023438 121.84375 190.023438 " fill-opacity="1" fill-rule="nonzero"/></g><path fill="#545454" d="M 124.554688 192.363281 L 119.515625 192.738281 C 119.652344 194.484375 119.851562 196.25 120.117188 197.984375 L 125.109375 197.214844 C 124.863281 195.609375 124.675781 193.972656 124.554688 192.363281 " fill-opacity="1" fill-rule="nonzero"/><g clip-path="url(#902933ffd2)"><path fill="#545454" d="M 262.519531 193.289062 L 254.941406 185.714844 C 253.957031 184.726562 252.359375 184.726562 251.371094 185.714844 L 243.796875 193.289062 L 247.367188 196.859375 L 250.304688 193.921875 C 247.082031 225.722656 220.140625 250.632812 187.5 250.632812 C 158.074219 250.632812 132.8125 230.667969 126.054688 202.070312 L 121.144531 203.234375 C 128.441406 234.117188 155.726562 255.683594 187.5 255.683594 C 223.128906 255.683594 252.445312 228.199219 255.414062 193.328125 L 258.945312 196.859375 L 262.519531 193.289062 " fill-opacity="1" fill-rule="nonzero"/></g><path fill="#545454" d="M 187.5 140.773438 C 184.789062 144.027344 179.925781 150.734375 179.925781 157.195312 C 179.925781 161.378906 183.316406 164.773438 187.5 164.773438 C 191.683594 164.773438 195.074219 161.378906 195.074219 157.195312 C 195.074219 150.714844 190.222656 144.019531 187.5 140.773438 " fill-opacity="1" fill-rule="nonzero"/><path fill="#545454" d="M 157.195312 148.347656 C 154.484375 151.605469 149.621094 158.3125 149.621094 164.773438 C 149.621094 168.957031 153.015625 172.347656 157.195312 172.347656 C 161.378906 172.347656 164.773438 168.957031 164.773438 164.773438 C 164.773438 158.292969 159.917969 151.59375 157.195312 148.347656 " fill-opacity="1" fill-rule="nonzero"/><path fill="#545454" d="M 217.804688 148.347656 C 215.089844 151.605469 210.226562 158.3125 210.226562 164.773438 C 210.226562 168.957031 213.621094 172.347656 217.804688 172.347656 C 221.984375 172.347656 225.378906 168.957031 225.378906 164.773438 C 225.378906 158.292969 220.527344 151.59375 217.804688 148.347656 " fill-opacity="1" fill-rule="nonzero"/><path fill="#545454" d="M 225.734375 212.101562 C 223.976562 211.3125 222.449219 210.355469 220.851562 209.347656 C 216.808594 206.804688 212.21875 203.914062 203.488281 203.914062 C 194.761719 203.914062 190.183594 206.804688 186.140625 209.359375 C 182.183594 211.855469 178.761719 214.015625 171.492188 214.015625 C 164.21875 214.015625 160.796875 211.863281 156.820312 209.359375 C 153.683594 207.386719 150.429688 205.375 145.359375 204.445312 C 143.238281 199.207031 142.046875 193.496094 142.046875 187.5 C 142.046875 186.710938 142.066406 185.902344 142.113281 185.082031 C 147.648438 185.546875 150.695312 187.460938 154.148438 189.640625 C 158.191406 192.183594 162.769531 195.074219 171.492188 195.074219 C 180.21875 195.074219 184.796875 192.183594 188.839844 189.628906 C 192.796875 187.136719 196.21875 184.976562 203.488281 184.976562 C 210.761719 184.976562 214.183594 187.136719 218.148438 189.628906 C 221.667969 191.851562 225.605469 194.335938 232.34375 194.929688 C 231.316406 201.210938 229 207 225.734375 212.101562 Z M 187.5 232.953125 C 170.847656 232.953125 156.300781 223.929688 148.378906 210.53125 C 150.519531 211.382812 152.304688 212.484375 154.140625 213.640625 C 158.183594 216.183594 162.769531 219.066406 171.492188 219.066406 C 180.21875 219.066406 184.796875 216.175781 188.839844 213.621094 C 192.796875 211.125 196.21875 208.964844 203.488281 208.964844 C 210.761719 208.964844 214.191406 211.125 218.167969 213.621094 C 219.597656 214.527344 221.078125 215.4375 222.746094 216.253906 C 214.390625 226.503906 201.664062 232.953125 187.5 232.953125 " fill-opacity="1" fill-rule="nonzero"/></svg>